<?xml version="1.0" encoding="UTF-8" standalone="no"?>
<!-- Uploaded to: SVG Repo, www.svgrepo.com, Generator: SVG Repo Mixer Tools -->

<svg
   fill="#000000"
   version="1.1"
   id="Capa_1"
   width="800px"
   height="800px"
   viewBox="0 0 253.224 253.224"
   xml:space="preserve"
   sodipodi:docname="icon.svg"
   inkscape:version="1.1.2 (0a00cf5339, 2022-02-04)"
   xmlns:inkscape="http://www.inkscape.org/namespaces/inkscape"
   xmlns:sodipodi="http://sodipodi.sourceforge.net/DTD/sodipodi-0.dtd"
   xmlns="http://www.w3.org/2000/svg"
   xmlns:svg="http://www.w3.org/2000/svg"><defs
   id="defs16">
	

		
	
			
			
			
		</defs><sodipodi:namedview
   id="namedview14"
   pagecolor="#ffffff"
   bordercolor="#666666"
   borderopacity="1.0"
   inkscape:pageshadow="2"
   inkscape:pageopacity="0.0"
   inkscape:pagecheckerboard="0"
   showgrid="false"
   inkscape:zoom="0.9775"
   inkscape:cx="400"
   inkscape:cy="399.48849"
   inkscape:window-width="1845"
   inkscape:window-height="1016"
   inkscape:window-x="0"
   inkscape:window-y="0"
   inkscape:window-maximized="1"
   inkscape:current-layer="Capa_1" />
<path
   d="M 224.944,35.318 H 28.31 V 164.979 H 224.945 V 35.318 Z M 205.008,145.053 H 48.246 V 55.244 h 156.762 z"
   id="path2"
   style="fill:#808080;fill-opacity:1" /><path
   d="M 224.8861,168.16476 H 28.252101 v 42.44061 H 224.8871 v -42.44061 z m -19.936,35.91844 H 48.188101 V 174.68693 H 204.9501 Z"
   id="path2-3"
   style="stroke-width:0.572119;fill:#008000" />
<path
   sodipodi:type="star"
   style="fill:#808080"
   id="path47"
   inkscape:flatsided="false"
   sodipodi:sides="5"
   sodipodi:cx="189.33424"
   sodipodi:cy="586.04541"
   sodipodi:r1="45.76553"
   sodipodi:r2="22.882765"
   sodipodi:arg1="0.76292171"
   sodipodi:arg2="1.3912402"
   inkscape:rounded="0"
   inkscape:randomized="0"
   d="m 222.41449,617.67105 -28.99355,-9.11076 -23.94211,18.71916 -0.29465,-30.38988 -25.2015,-16.98576 28.81144,-9.67122 8.36673,-29.21694 18.1011,24.41274 30.37242,-1.0713 -17.62434,24.75912 z"
   transform="scale(0.31653)"
   inkscape:transform-center-x="0.79946544"
   inkscape:transform-center-y="-0.60072931" /><path
   sodipodi:type="star"
   style="fill:#ffff00"
   id="path75"
   inkscape:flatsided="false"
   sodipodi:sides="5"
   sodipodi:cx="263.96658"
   sodipodi:cy="576.17487"
   sodipodi:r1="27.598064"
   sodipodi:r2="13.799032"
   sodipodi:arg1="1.8268377"
   sodipodi:arg2="2.4551562"
   inkscape:rounded="0"
   inkscape:randomized="0"
   d="m 256.97729,602.87324 -3.68439,-17.95276 -16.87779,-7.14258 15.93555,-9.05176 1.57747,-18.25891 13.5331,12.35845 17.85272,-4.14205 -7.57163,16.68972 9.45611,15.69898 -18.21262,-2.04365 z"
   transform="scale(0.31653)"
   inkscape:transform-center-x="0.68364449"
   inkscape:transform-center-y="0.15679838" /><path
   sodipodi:type="star"
   style="fill:#ff0000"
   id="path165"
   inkscape:flatsided="false"
   sodipodi:sides="5"
   sodipodi:cx="314.36621"
   sodipodi:cy="618.4223"
   sodipodi:r1="29.167849"
   sodipodi:r2="14.583924"
   sodipodi:arg1="-0.53097385"
   sodipodi:arg2="0.097344682"
   inkscape:rounded="0"
   inkscape:randomized="0"
   d="m 339.51807,603.65248 -10.63698,16.18725 7.30441,17.93928 -18.682,-5.11423 -14.80408,12.49045 -0.90914,-19.34802 -16.45383,-10.21976 18.12012,-6.8435 4.63506,-18.80661 12.10798,15.1185 z"
   transform="scale(0.31653)"
   inkscape:transform-center-x="0.61373683"
   inkscape:transform-center-y="-0.27728588" /><path
   sodipodi:type="star"
   style="fill:#aa0000"
   id="path189"
   inkscape:flatsided="false"
   sodipodi:sides="5"
   sodipodi:cx="365.70093"
   sodipodi:cy="570.9599"
   sodipodi:r1="18.334051"
   sodipodi:r2="9.1670265"
   sodipodi:arg1="0.35111737"
   sodipodi:arg2="0.9794359"
   inkscape:rounded="0"
   inkscape:randomized="0"
   d="m 382.9164,577.26585 -12.10494,1.30436 -5.78797,10.71122 -4.98116,-11.10941 -11.97555,-2.19474 9.02641,-8.17035 -1.61333,-12.06765 10.55979,6.05985 10.97846,-5.26347 -2.50011,11.91555 z"
   transform="scale(0.31653)"
   inkscape:transform-center-x="0.0662623"
   inkscape:transform-center-y="0.49076608" /><path
   sodipodi:type="star"
   style="fill:#ff00ff"
   id="path215"
   inkscape:flatsided="false"
   sodipodi:sides="5"
   sodipodi:cx="413.61893"
   sodipodi:cy="624.53247"
   sodipodi:r1="27.347908"
   sodipodi:r2="13.673954"
   sodipodi:arg1="-0.31773043"
   sodipodi:arg2="0.3105881"
   inkscape:rounded="0"
   inkscape:randomized="0"
   d="m 439.59799,615.98867 -12.95935,12.72282 3.13389,17.88836 -16.10477,-8.39351 -16.04442,8.50832 3.00606,-17.91029 -13.04989,-12.62993 17.96261,-2.67566 7.97914,-16.31404 8.09546,16.25664 z"
   transform="scale(0.31653)"
   inkscape:transform-center-x="0.009552789"
   inkscape:transform-center-y="-0.8175253" /><path
   sodipodi:type="star"
   style="fill:#00ff00"
   id="path239"
   inkscape:flatsided="false"
   sodipodi:sides="5"
   sodipodi:cx="467.25943"
   sodipodi:cy="585.19421"
   sodipodi:r1="23.176077"
   sodipodi:r2="11.588039"
   sodipodi:arg1="-0.40122399"
   sodipodi:arg2="0.22709454"
   inkscape:rounded="0"
   inkscape:randomized="0"
   d="m 488.59495,576.1429 -10.04501,11.66033 3.91084,14.88526 -14.19371,-5.95013 -12.94821,8.31922 1.27281,-15.33771 -11.91326,-9.74369 14.98035,-3.5291 5.5854,-14.34116 7.98556,13.15661 z"
   transform="scale(0.31653)"
   inkscape:transform-center-x="0.19711995"
   inkscape:transform-center-y="-0.51039278" /><path
   sodipodi:type="star"
   style="fill:#d45500"
   id="path263"
   inkscape:flatsided="false"
   sodipodi:sides="5"
   sodipodi:cx="518.49823"
   sodipodi:cy="596.26361"
   sodipodi:r1="21.713902"
   sodipodi:r2="10.85695"
   sodipodi:arg1="0.86003416"
   sodipodi:arg2="1.4883527"
   inkscape:rounded="0"
   inkscape:randomized="0"
   d="m 532.66463,612.71981 -13.27233,-5.63613 -12.16719,7.73822 1.2589,-14.36439 -11.11935,-9.18045 14.05037,-3.24155 5.29505,-13.41205 7.42471,12.361 14.39188,0.89135 -9.46165,10.88107 z"
   transform="scale(0.31653)"
   inkscape:transform-center-x="0.17490416"
   inkscape:transform-center-y="-0.48774977" /><path
   sodipodi:type="star"
   style="fill:#ff0000"
   id="path287"
   inkscape:flatsided="false"
   sodipodi:sides="5"
   sodipodi:cx="592.73096"
   sodipodi:cy="613.93463"
   sodipodi:r1="38.446815"
   sodipodi:r2="19.223408"
   sodipodi:arg1="-1.8181951"
   sodipodi:arg2="-1.1898765"
   inkscape:rounded="0"
   inkscape:randomized="0"
   d="m 583.31599,576.65842 16.56174,19.43068 25.39563,-2.62761 -13.36182,21.75555 10.34669,23.34071 -24.81979,-5.98501 -19.00103,17.05296 -1.97765,-25.4545 -22.08997,-12.80139 23.59753,-9.74674 z"
   transform="scale(0.31653)"
   inkscape:transform-center-x="0.92090705"
   inkscape:transform-center-y="-0.25087344" /></svg>
